<svg height="53px" viewBox="0 0 64 64" width="50px" xmlns="http://www.w3.org/2000/svg"><g id="Conservation-eco-ecology-world-center"><path d="m43 14v47h-22v-47a11 11 0 1 1 22 0z" fill="#57a4ff"/><path d="m43 14v47h-4v-47a11 11 0 0 0 -9-10.82 11 11 0 0 1 13 10.82z" fill="#006df0"/><path d="m38.5 43a1.5 1.5 0 0 1 0 3h-13a1.5 1.5 0 0 1 0-3z" fill="#ffde55"/><path d="m40 44.5a1.5 1.5 0 0 1 -1.5 1.5h-4a1.5 1.5 0 0 0 0-3h4a1.5 1.5 0 0 1 1.5 1.5z" fill="#ebbf00"/><path d="m61 20v41h-18v-43h16a2.006 2.006 0 0 1 2 2z" fill="#e0e0e2"/><path d="m21 18v43h-18v-41a2.006 2.006 0 0 1 2-2z" fill="#e0e0e2"/><path d="m61 20v41h-4v-41a2.006 2.006 0 0 0 -2-2h4a2.006 2.006 0 0 1 2 2z" fill="#acabb1"/><path d="m56 45-.63 5.02a3.4 3.4 0 0 1 -6.74 0l-.63-5.02a4 4 0 0 1 8 0z" fill="#009698"/><path d="m34 33h6v6h-6z" fill="#46f8ff"/><path d="m34 23h6v6h-6z" fill="#46f8ff"/><path d="m36 11-4 9v-6h-4l4-8v5z" fill="#ffde55"/><path d="m24 33h6v6h-6z" fill="#46f8ff"/><path d="m24 23h6v6h-6z" fill="#46f8ff"/><path d="m17 18h4v43h-4z" fill="#acabb1"/><path d="m16 45-.63 5.02a3.4 3.4 0 0 1 -6.74 0l-.63-5.02a4 4 0 1 1 8 0z" fill="#009698"/><path d="m56 45-.63 5.02a3.4 3.4 0 0 1 -6.47.98h.1a3.4 3.4 0 0 0 3.37-2.98l.63-5.02a3.994 3.994 0 0 0 -.52-1.97 4 4 0 0 1 3.52 3.97z" fill="#007579"/><path d="m16 45-.63 5.02a3.4 3.4 0 0 1 -6.47.98h.1a3.4 3.4 0 0 0 3.37-2.98l.63-5.02a3.994 3.994 0 0 0 -.52-1.97 3.991 3.991 0 0 1 3.52 3.97z" fill="#007579"/><path d="m32 49a6 6 0 0 1 6 6v6a0 0 0 0 1 0 0h-12a0 0 0 0 1 0 0v-6a6 6 0 0 1 6-6z" fill="#e0e0e2"/><path d="m38 55v6h-3v-6a6 6 0 0 0 -4.5-5.8 5.715 5.715 0 0 1 1.5-.2 6 6 0 0 1 6 6z" fill="#acabb1"/><circle cx="52" cy="25" fill="#46f8ff" r="3"/><path d="m55 25a3 3 0 0 1 -5.87.87 3.1 3.1 0 0 0 .87.13 3 3 0 0 0 3-3 3.1 3.1 0 0 0 -.13-.87 2.982 2.982 0 0 1 2.13 2.87z" fill="#00d7df"/><circle cx="52" cy="35" fill="#46f8ff" r="3"/><path d="m55 35a3 3 0 0 1 -5.87.87 3.1 3.1 0 0 0 .87.13 3 3 0 0 0 3-3 3.1 3.1 0 0 0 -.13-.87 2.982 2.982 0 0 1 2.13 2.87z" fill="#00d7df"/><circle cx="12" cy="35" fill="#46f8ff" r="3"/><path d="m15 35a3 3 0 0 1 -5.87.87 3.1 3.1 0 0 0 .87.13 3 3 0 0 0 3-3 3.1 3.1 0 0 0 -.13-.87 2.982 2.982 0 0 1 2.13 2.87z" fill="#00d7df"/><circle cx="12" cy="25" fill="#46f8ff" r="3"/><g fill="#00d7df"><path d="m15 25a3 3 0 0 1 -5.87.87 3.1 3.1 0 0 0 .87.13 3 3 0 0 0 3-3 3.1 3.1 0 0 0 -.13-.87 2.982 2.982 0 0 1 2.13 2.87z"/><path d="m37 23h3v6h-3z"/><path d="m37 33h3v6h-3z"/><path d="m27 23h3v6h-3z"/><path d="m27 33h3v6h-3z"/></g><path d="m59 17h-15v-3a12 12 0 0 0 -24 0v3h-15a3.009 3.009 0 0 0 -3 3v41a1 1 0 0 0 1 1h58a1 1 0 0 0 1-1v-41a3.009 3.009 0 0 0 -3-3zm-39 43h-7v-6.13a4.394 4.394 0 0 0 3.36-3.72l.63-5.03a.487.487 0 0 0 .01-.12 5 5 0 0 0 -10 0 .487.487 0 0 0 .01.12l.63 5.03a4.394 4.394 0 0 0 3.36 3.72v6.13h-7v-40a1 1 0 0 1 1-1h15zm-8-8a2.4 2.4 0 0 1 -2.38-2.1l-.62-4.96a3 3 0 0 1 6 0l-.62 4.96a2.4 2.4 0 0 1 -2.38 2.1zm25 8h-10v-5a5 5 0 0 1 10 0zm5 0h-3v-5a7 7 0 0 0 -14 0v5h-3v-46a10 10 0 0 1 20 0zm18 0h-7v-6.13a4.394 4.394 0 0 0 3.36-3.72l.63-5.03a.487.487 0 0 0 .01-.12 5 5 0 0 0 -10 0 .487.487 0 0 0 .01.12l.63 5.03a4.394 4.394 0 0 0 3.36 3.72v6.13h-7v-41h15a1 1 0 0 1 1 1zm-8-8a2.4 2.4 0 0 1 -2.38-2.1l-.62-4.96a3 3 0 0 1 6 0l-.62 4.96a2.4 2.4 0 0 1 -2.38 2.1z"/><path d="m24 40h6a1 1 0 0 0 1-1v-6a1 1 0 0 0 -1-1h-6a1 1 0 0 0 -1 1v6a1 1 0 0 0 1 1zm1-6h4v4h-4z"/><path d="m40 32h-6a1 1 0 0 0 -1 1v6a1 1 0 0 0 1 1h6a1 1 0 0 0 1-1v-6a1 1 0 0 0 -1-1zm-1 6h-4v-4h4z"/><path d="m24 30h6a1 1 0 0 0 1-1v-6a1 1 0 0 0 -1-1h-6a1 1 0 0 0 -1 1v6a1 1 0 0 0 1 1zm1-6h4v4h-4z"/><path d="m33 23v6a1 1 0 0 0 1 1h6a1 1 0 0 0 1-1v-6a1 1 0 0 0 -1-1h-6a1 1 0 0 0 -1 1zm2 1h4v4h-4z"/><path d="m12 39a4 4 0 1 0 -4-4 4 4 0 0 0 4 4zm0-6a2 2 0 1 1 -2 2 2 2 0 0 1 2-2z"/><path d="m12 29a4 4 0 1 0 -4-4 4 4 0 0 0 4 4zm0-6a2 2 0 1 1 -2 2 2 2 0 0 1 2-2z"/><path d="m38.5 42h-13a2.5 2.5 0 0 0 0 5h13a2.5 2.5 0 0 0 0-5zm0 3h-13a.5.5 0 0 1 0-1h13a.5.5 0 0 1 0 1z"/><path d="m52 31a4 4 0 1 0 4 4 4 4 0 0 0 -4-4zm0 6a2 2 0 1 1 2-2 2 2 0 0 1 -2 2z"/><path d="m52 21a4 4 0 1 0 4 4 4 4 0 0 0 -4-4zm0 6a2 2 0 1 1 2-2 2 2 0 0 1 -2 2z"/><path d="m28 15h3v5a1 1 0 0 0 .792.979 1.064 1.064 0 0 0 .208.021 1 1 0 0 0 .914-.594l4-9a1 1 0 0 0 -.914-1.406h-3v-4a1 1 0 0 0 -1.895-.447l-4 8a1 1 0 0 0 .895 1.447zm3-4.764v.764a1 1 0 0 0 1 1h2.461l-1.461 3.288v-1.288a1 1 0 0 0 -1-1h-2.382z"/></g></svg>