<svg height="53px" viewBox="0 0 64 64" width="50px" xmlns="http://www.w3.org/2000/svg"><g id="factory-eco-ecology-world-plant"><path d="m58 21a3 3 0 0 1 0 6h-8a3 3 0 0 1 0-6z" fill="#a78966"/><path d="m3 33h58v4h-58z" fill="#e0e0e2"/><path d="m58 8a3 3 0 0 1 0 6h-6a3 3 0 0 1 -6 0 3 3 0 0 1 0-6h2a5 5 0 0 1 10 0z" fill="#e0e0e2"/><path d="m61 11a3 3 0 0 1 -3 3h-5a3 3 0 0 0 0-6 4.992 4.992 0 0 0 -2.5-4.33 4.919 4.919 0 0 1 2.5-.67 5 5 0 0 1 5 5 3 3 0 0 1 3 3z" fill="#acabb1"/><path d="m61 24a3 3 0 0 1 -3 3h-4a3 3 0 0 0 0-6h4a3 3 0 0 1 3 3z" fill="#806749"/><path d="m60 37v20a4 4 0 0 1 -4 4h-48a4 4 0 0 1 -4-4v-20z" fill="#c0ab91"/><path d="m50 27h8v6h-8z" fill="#acabb1"/><rect fill="#46f8ff" height="8" rx="2" width="8" x="48" y="49"/><path d="m55.41 41.59a1.955 1.955 0 0 1 .59 1.41 2.006 2.006 0 0 1 -2 2h-4a2.015 2.015 0 0 1 -2-2 2.006 2.006 0 0 1 2-2h4a1.955 1.955 0 0 1 1.41.59z" fill="#46f8ff"/><circle cx="40" cy="5" fill="#e0e0e2" r="2"/><path d="m40 43v2a8 8 0 0 1 -8 8v-2a8 8 0 0 1 8-8z" fill="#ffde55"/><path d="m36 13a3 3 0 0 1 0 6h-8a3 3 0 0 1 0-6z" fill="#a78966"/><path d="m28 19h8v14h-8z" fill="#acabb1"/><circle cx="32" cy="7" fill="#e0e0e2" r="2"/><path d="m32 51v2a8 8 0 0 1 -8-8v-2a8 8 0 0 1 8 8z" fill="#ffde55"/><path d="m40 43v2a8 8 0 0 1 -8 8v-2a2.09 2.09 0 0 1 .01-.25 8 8 0 0 0 5.98-7.5 8.321 8.321 0 0 1 2.01-.25z" fill="#ebbf00"/><path d="m32 51v2a8 8 0 0 1 -7.48-5.17 8 8 0 0 0 5.48 2.17v-2a7.815 7.815 0 0 0 -.52-2.83 7.984 7.984 0 0 1 2.52 5.83z" fill="#ebbf00"/><path d="m14 3a3 3 0 0 1 0 6h-8a3 3 0 0 1 0-6z" fill="#a78966"/><rect fill="#46f8ff" height="8" rx="2" width="8" x="8" y="49"/><path d="m14 41a2.006 2.006 0 0 1 2 2 2.015 2.015 0 0 1 -2 2h-4a2.006 2.006 0 0 1 -2-2 2.015 2.015 0 0 1 2-2z" fill="#46f8ff"/><g fill="#00d7df"><path d="m56 51v4a2.006 2.006 0 0 1 -2 2h-3a2.006 2.006 0 0 0 2-2v-4a2.006 2.006 0 0 0 -2-2h3a2.006 2.006 0 0 1 2 2z"/><path d="m56 43a2.006 2.006 0 0 1 -2 2h-3a2.006 2.006 0 0 0 2-2 2.015 2.015 0 0 0 -2-2h3a2.015 2.015 0 0 1 2 2z"/><path d="m16 51v4a2.006 2.006 0 0 1 -2 2h-3a2.006 2.006 0 0 0 2-2v-4a2.006 2.006 0 0 0 -2-2h3a2.006 2.006 0 0 1 2 2z"/><path d="m16 43a2.015 2.015 0 0 1 -2 2h-3a2.015 2.015 0 0 0 2-2 2.006 2.006 0 0 0 -2-2h3a2.006 2.006 0 0 1 2 2z"/></g><path d="m6 9h8v24h-8z" fill="#acabb1"/><path d="m3 33h58v2h-58z" fill="#acabb1"/><g fill="#787680"><path d="m50 27h8v2h-8z"/><path d="m28 19h8v2h-8z"/><path d="m6 9h8v2h-8z"/></g><path d="m4 37h56v2h-56z" fill="#957856"/><path d="m39 16a3 3 0 0 1 -3 3h-4a3 3 0 0 0 0-6h4a3 3 0 0 1 3 3z" fill="#806749"/><path d="m17 6a3 3 0 0 1 -3 3h-4a3 3 0 0 0 0-6h4a3 3 0 0 1 3 3z" fill="#806749"/><path d="m10 58h4a3 3 0 0 0 3-3v-4a3 3 0 0 0 -3-3h-4a3 3 0 0 0 -3 3v4a3 3 0 0 0 3 3zm-1-7a1 1 0 0 1 1-1h4a1 1 0 0 1 1 1v4a1 1 0 0 1 -1 1h-4a1 1 0 0 1 -1-1z"/><path d="m50 58h4a3 3 0 0 0 3-3v-4a3 3 0 0 0 -3-3h-4a3 3 0 0 0 -3 3v4a3 3 0 0 0 3 3zm-1-7a1 1 0 0 1 1-1h4a1 1 0 0 1 1 1v4a1 1 0 0 1 -1 1h-4a1 1 0 0 1 -1-1z"/><path d="m10 46h4a3 3 0 0 0 0-6h-4a3 3 0 0 0 0 6zm0-4h4a1 1 0 0 1 0 2h-4a1 1 0 0 1 0-2z"/><path d="m50 46h4a3 3 0 0 0 0-6h-4a3 3 0 0 0 0 6zm0-4h4a1 1 0 0 1 0 2h-4a1 1 0 0 1 0-2z"/><path d="m61 32h-2v-4.14a3.993 3.993 0 0 0 -1-7.86h-8a3.993 3.993 0 0 0 -1 7.86v4.14h-12v-12.14a3.993 3.993 0 0 0 -1-7.86h-8a3.993 3.993 0 0 0 -1 7.86v12.14h-12v-22.14a3.993 3.993 0 0 0 -1-7.86h-8a3.993 3.993 0 0 0 -1 7.86v22.14h-2a1 1 0 0 0 -1 1v4a1 1 0 0 0 1 1v19a5 5 0 0 0 5 5h48a5 5 0 0 0 5-5v-19a1 1 0 0 0 1-1v-4a1 1 0 0 0 -1-1zm-13-8a2.006 2.006 0 0 1 2-2h8a2 2 0 0 1 0 4h-8a2.006 2.006 0 0 1 -2-2zm9 4v4h-6v-4zm-31-12a2.006 2.006 0 0 1 2-2h8a2 2 0 0 1 0 4h-8a2.006 2.006 0 0 1 -2-2zm9 4v12h-6v-12zm-31-14a2.006 2.006 0 0 1 2-2h8a2 2 0 0 1 0 4h-8a2.006 2.006 0 0 1 -2-2zm9 4v22h-6v-22zm18 41.93a7.013 7.013 0 0 1 -6-6.93v-.93a7.013 7.013 0 0 1 6 6.93zm28 5.07a3.009 3.009 0 0 1 -3 3h-23v-6.06a9.016 9.016 0 0 0 8-8.94v-2a1 1 0 0 0 -1-1 9 9 0 0 0 -8 4.9 9 9 0 0 0 -8-4.9 1 1 0 0 0 -1 1v2a9.016 9.016 0 0 0 8 8.94v6.06h-23a3.009 3.009 0 0 1 -3-3v-19h54zm-26-5.07v-.93a7.013 7.013 0 0 1 6-6.93v.93a7.013 7.013 0 0 1 -6 6.93zm27-15.93h-56v-2h56z"/><path d="m45.1 14.9a4 4 0 0 0 7.772.1h5.128a4 4 0 0 0 .934-7.89 6 6 0 0 0 -11.851-.11h-1.083a4 4 0 0 0 -.9 7.9zm.9-5.9h2a1 1 0 0 0 1-1 4 4 0 0 1 8 0 1 1 0 0 0 1 1 2 2 0 0 1 0 4h-6a1 1 0 0 0 -1 1 2 2 0 0 1 -4 0 1 1 0 0 0 -1-1 2 2 0 0 1 0-4z"/><path d="m32 10a3 3 0 1 0 -3-3 3 3 0 0 0 3 3zm0-4a1 1 0 1 1 -1 1 1 1 0 0 1 1-1z"/><path d="m40 8a3 3 0 1 0 -3-3 3 3 0 0 0 3 3zm0-4a1 1 0 1 1 -1 1 1 1 0 0 1 1-1z"/></g></svg>